<mxfile host="app.diagrams.net" agent="Mozilla/5.0 (Windows NT 10.0; Win64; x64) AppleWebKit/537.36 (KHTML, like Gecko) Chrome/131.0.0.0 Safari/537.36" version="25.0.3">
  <diagram name="PÃ¡gina-1" id="1Hw-TcdHoEDZtRRDqAd-">
    <mxGraphModel dx="666" dy="420" grid="1" gridSize="10" guides="1" tooltips="1" connect="1" arrows="1" fold="1" page="1" pageScale="1" pageWidth="827" pageHeight="1169" math="0" shadow="0">
      <root>
        <mxCell id="0" />
        <mxCell id="1" parent="0" />
        <mxCell id="suS5fiH4HcFKJgkptRaj-1" value="INICIO" style="ellipse;whiteSpace=wrap;html=1;" vertex="1" parent="1">
          <mxGeometry x="280" y="30" width="120" height="70" as="geometry" />
        </mxCell>
        <mxCell id="suS5fiH4HcFKJgkptRaj-2" value="FIM" style="ellipse;whiteSpace=wrap;html=1;" vertex="1" parent="1">
          <mxGeometry x="280" y="610" width="120" height="70" as="geometry" />
        </mxCell>
        <mxCell id="suS5fiH4HcFKJgkptRaj-10" style="edgeStyle=orthogonalEdgeStyle;rounded=0;orthogonalLoop=1;jettySize=auto;html=1;exitX=0.5;exitY=1;exitDx=0;exitDy=0;entryX=0.48;entryY=0.22;entryDx=0;entryDy=0;entryPerimeter=0;" edge="1" parent="1" source="suS5fiH4HcFKJgkptRaj-3" target="suS5fiH4HcFKJgkptRaj-4">
          <mxGeometry relative="1" as="geometry" />
        </mxCell>
        <mxCell id="suS5fiH4HcFKJgkptRaj-3" value="PRODUTO" style="html=1;strokeWidth=2;shape=manualInput;whiteSpace=wrap;rounded=1;size=26;arcSize=11;" vertex="1" parent="1">
          <mxGeometry x="290" y="120" width="100" height="60" as="geometry" />
        </mxCell>
        <mxCell id="suS5fiH4HcFKJgkptRaj-4" value="VALOR" style="html=1;strokeWidth=2;shape=manualInput;whiteSpace=wrap;rounded=1;size=26;arcSize=11;" vertex="1" parent="1">
          <mxGeometry x="290" y="200" width="100" height="60" as="geometry" />
        </mxCell>
        <mxCell id="suS5fiH4HcFKJgkptRaj-5" value="DESCONTO" style="html=1;strokeWidth=2;shape=manualInput;whiteSpace=wrap;rounded=1;size=26;arcSize=11;" vertex="1" parent="1">
          <mxGeometry x="290" y="280" width="100" height="60" as="geometry" />
        </mxCell>
        <mxCell id="suS5fiH4HcFKJgkptRaj-6" value="PRECOFINAL = VALOR - DESCONTO" style="rounded=1;whiteSpace=wrap;html=1;absoluteArcSize=1;arcSize=14;strokeWidth=2;" vertex="1" parent="1">
          <mxGeometry x="240" y="390" width="230" height="50" as="geometry" />
        </mxCell>
        <mxCell id="suS5fiH4HcFKJgkptRaj-14" style="edgeStyle=orthogonalEdgeStyle;rounded=0;orthogonalLoop=1;jettySize=auto;html=1;exitX=0.5;exitY=1;exitDx=0;exitDy=0;exitPerimeter=0;entryX=0.5;entryY=0;entryDx=0;entryDy=0;" edge="1" parent="1" source="suS5fiH4HcFKJgkptRaj-7" target="suS5fiH4HcFKJgkptRaj-2">
          <mxGeometry relative="1" as="geometry" />
        </mxCell>
        <mxCell id="suS5fiH4HcFKJgkptRaj-7" value="PRODUTO&lt;div&gt;VALOR&lt;/div&gt;&lt;div&gt;DESCONTO&lt;/div&gt;&lt;div&gt;PRECOFINAL&lt;/div&gt;" style="strokeWidth=2;html=1;shape=mxgraph.flowchart.display;whiteSpace=wrap;" vertex="1" parent="1">
          <mxGeometry x="275" y="480" width="130" height="80" as="geometry" />
        </mxCell>
        <mxCell id="suS5fiH4HcFKJgkptRaj-9" style="edgeStyle=orthogonalEdgeStyle;rounded=0;orthogonalLoop=1;jettySize=auto;html=1;exitX=0.5;exitY=1;exitDx=0;exitDy=0;entryX=0.496;entryY=0.193;entryDx=0;entryDy=0;entryPerimeter=0;" edge="1" parent="1" source="suS5fiH4HcFKJgkptRaj-1" target="suS5fiH4HcFKJgkptRaj-3">
          <mxGeometry relative="1" as="geometry" />
        </mxCell>
        <mxCell id="suS5fiH4HcFKJgkptRaj-11" style="edgeStyle=orthogonalEdgeStyle;rounded=0;orthogonalLoop=1;jettySize=auto;html=1;exitX=0.5;exitY=1;exitDx=0;exitDy=0;entryX=0.512;entryY=0.193;entryDx=0;entryDy=0;entryPerimeter=0;" edge="1" parent="1" source="suS5fiH4HcFKJgkptRaj-4" target="suS5fiH4HcFKJgkptRaj-5">
          <mxGeometry relative="1" as="geometry" />
        </mxCell>
        <mxCell id="suS5fiH4HcFKJgkptRaj-13" style="edgeStyle=orthogonalEdgeStyle;rounded=0;orthogonalLoop=1;jettySize=auto;html=1;exitX=0.5;exitY=1;exitDx=0;exitDy=0;entryX=0.638;entryY=-0.005;entryDx=0;entryDy=0;entryPerimeter=0;" edge="1" parent="1" source="suS5fiH4HcFKJgkptRaj-6" target="suS5fiH4HcFKJgkptRaj-7">
          <mxGeometry relative="1" as="geometry" />
        </mxCell>
        <mxCell id="suS5fiH4HcFKJgkptRaj-15" style="edgeStyle=orthogonalEdgeStyle;rounded=0;orthogonalLoop=1;jettySize=auto;html=1;exitX=0.5;exitY=1;exitDx=0;exitDy=0;entryX=0.437;entryY=-0.016;entryDx=0;entryDy=0;entryPerimeter=0;" edge="1" parent="1" source="suS5fiH4HcFKJgkptRaj-5" target="suS5fiH4HcFKJgkptRaj-6">
          <mxGeometry relative="1" as="geometry" />
        </mxCell>
      </root>
    </mxGraphModel>
  </diagram>
</mxfile>
